<?xml version="1.0" encoding="UTF-8"?>
<!DOCTYPE svg PUBLIC "-//W3C//DTD SVG 1.1//EN" "http://www.w3.org/Graphics/SVG/1.1/DTD/svg11.dtd">
<svg xmlns="http://www.w3.org/2000/svg" version="1.1" width="886px" height="886px" style="shape-rendering:geometricPrecision; text-rendering:geometricPrecision; image-rendering:optimizeQuality; fill-rule:evenodd; clip-rule:evenodd" xmlns:xlink="http://www.w3.org/1999/xlink">
<g><path style="opacity:0.997" fill="#fef5c5" d="M 777.5,213.5 C 776.513,218.305 776.179,223.305 776.5,228.5C 758.167,228.5 739.833,228.5 721.5,228.5C 721.5,218.833 721.5,209.167 721.5,199.5C 721.5,190.167 721.5,180.833 721.5,171.5C 684.167,171.5 646.833,171.5 609.5,171.5C 609.5,161.5 609.5,151.5 609.5,141.5C 609.5,141.167 609.5,140.833 609.5,140.5C 610.493,131.682 610.827,122.682 610.5,113.5C 497.999,113.167 385.665,113.5 273.5,114.5C 273.187,126.913 273.521,139.247 274.5,151.5C 274.5,158.167 274.5,164.833 274.5,171.5C 237.167,171.5 199.833,171.5 162.5,171.5C 162.5,177.833 162.5,184.167 162.5,190.5C 162.5,203.167 162.5,215.833 162.5,228.5C 144.167,228.5 125.833,228.5 107.5,228.5C 106.591,209.502 106.091,190.502 106,171.5C 124.424,170.507 142.924,170.174 161.5,170.5C 160.514,151.266 160.514,132.099 161.5,113C 198.498,112.5 235.498,112.333 272.5,112.5C 271.985,93.5039 271.652,74.5039 271.5,55.5C 384.833,55.5 498.167,55.5 611.5,55.5C 611.5,74.5 611.5,93.5 611.5,112.5C 648.502,112.333 685.502,112.5 722.5,113C 723.289,132.096 723.289,151.263 722.5,170.5C 740.836,170.333 759.17,170.5 777.5,171C 778.072,185.091 778.072,199.258 777.5,213.5 Z"/></g>
<g><path style="opacity:1" fill="#a18f70" d="M 273.5,114.5 C 385.665,113.5 497.999,113.167 610.5,113.5C 610.827,122.682 610.493,131.682 609.5,140.5C 609.5,131.833 609.5,123.167 609.5,114.5C 497.5,114.5 385.5,114.5 273.5,114.5 Z"/></g>
<g><path style="opacity:1" fill="#492f1e" d="M 273.5,114.5 C 385.5,114.5 497.5,114.5 609.5,114.5C 609.5,123.167 609.5,131.833 609.5,140.5C 609.5,140.833 609.5,141.167 609.5,141.5C 608.506,151.319 608.173,161.319 608.5,171.5C 497.5,171.5 386.5,171.5 275.5,171.5C 275.824,164.646 275.491,157.979 274.5,151.5C 273.521,139.247 273.187,126.913 273.5,114.5 Z"/></g>
<g><path style="opacity:1" fill="#553d2b" d="M 609.5,141.5 C 609.5,151.5 609.5,161.5 609.5,171.5C 609.5,171.833 609.5,172.167 609.5,172.5C 609.5,191.5 609.5,210.5 609.5,229.5C 591.167,229.5 572.833,229.5 554.5,229.5C 554.83,210.326 554.497,191.326 553.5,172.5C 516.5,172.5 479.5,172.5 442.5,172.5C 423.833,172.5 405.167,172.5 386.5,172.5C 367.833,172.5 349.167,172.5 330.5,172.5C 330.5,191.5 330.5,210.5 330.5,229.5C 312.167,229.5 293.833,229.5 275.5,229.5C 274.738,210.51 274.405,191.51 274.5,172.5C 274.5,172.167 274.5,171.833 274.5,171.5C 274.5,164.833 274.5,158.167 274.5,151.5C 275.491,157.979 275.824,164.646 275.5,171.5C 386.5,171.5 497.5,171.5 608.5,171.5C 608.173,161.319 608.506,151.319 609.5,141.5 Z"/></g>
<g><path style="opacity:1" fill="#a18f6f" d="M 274.5,171.5 C 274.5,171.833 274.5,172.167 274.5,172.5C 237.5,172.5 200.5,172.5 163.5,172.5C 163.5,178.5 163.5,184.5 163.5,190.5C 163.167,190.5 162.833,190.5 162.5,190.5C 162.5,184.167 162.5,177.833 162.5,171.5C 199.833,171.5 237.167,171.5 274.5,171.5 Z"/></g>
<g><path style="opacity:1" fill="#a18e6f" d="M 609.5,172.5 C 609.5,172.167 609.5,171.833 609.5,171.5C 646.833,171.5 684.167,171.5 721.5,171.5C 721.5,180.833 721.5,190.167 721.5,199.5C 721.167,199.5 720.833,199.5 720.5,199.5C 720.5,190.5 720.5,181.5 720.5,172.5C 683.5,172.5 646.5,172.5 609.5,172.5 Z"/></g>
<g><path style="opacity:1" fill="#675445" d="M 386.5,172.5 C 386.5,191.5 386.5,210.5 386.5,229.5C 368.167,229.5 349.833,229.5 331.5,229.5C 331.5,232.5 331.5,235.5 331.5,238.5C 330.523,235.713 330.19,232.713 330.5,229.5C 330.5,210.5 330.5,191.5 330.5,172.5C 349.167,172.5 367.833,172.5 386.5,172.5 Z"/></g>
<g><path style="opacity:1" fill="#716255" d="M 386.5,172.5 C 405.167,172.5 423.833,172.5 442.5,172.5C 442.5,191.5 442.5,210.5 442.5,229.5C 423.833,229.5 405.167,229.5 386.5,229.5C 386.5,210.5 386.5,191.5 386.5,172.5 Z"/></g>
<g><path style="opacity:1" fill="#675445" d="M 442.5,172.5 C 479.5,172.5 516.5,172.5 553.5,172.5C 553.5,191.5 553.5,210.5 553.5,229.5C 516.5,229.5 479.5,229.5 442.5,229.5C 442.5,210.5 442.5,191.5 442.5,172.5 Z"/></g>
<g><path style="opacity:1" fill="#492f1e" d="M 274.5,172.5 C 274.405,191.51 274.738,210.51 275.5,229.5C 256.833,229.5 238.167,229.5 219.5,229.5C 201.167,229.5 182.833,229.5 164.5,229.5C 164.823,223.31 164.49,217.31 163.5,211.5C 163.5,204.5 163.5,197.5 163.5,190.5C 163.5,184.5 163.5,178.5 163.5,172.5C 200.5,172.5 237.5,172.5 274.5,172.5 Z"/></g>
<g><path style="opacity:1" fill="#492f1e" d="M 609.5,172.5 C 646.5,172.5 683.5,172.5 720.5,172.5C 720.5,181.5 720.5,190.5 720.5,199.5C 719.506,209.319 719.173,219.319 719.5,229.5C 701.167,229.5 682.833,229.5 664.5,229.5C 646.167,229.5 627.833,229.5 609.5,229.5C 609.5,210.5 609.5,191.5 609.5,172.5 Z"/></g>
<g><path style="opacity:0.998" fill="#eadeb3" d="M 162.5,190.5 C 162.833,190.5 163.167,190.5 163.5,190.5C 163.5,197.5 163.5,204.5 163.5,211.5C 163.5,217.5 163.5,223.5 163.5,229.5C 145.167,229.5 126.833,229.5 108.5,229.5C 108.5,231.833 108.5,234.167 108.5,236.5C 107.527,234.052 107.194,231.385 107.5,228.5C 125.833,228.5 144.167,228.5 162.5,228.5C 162.5,215.833 162.5,203.167 162.5,190.5 Z"/></g>
<g><path style="opacity:0.993" fill="#e5d9ae" d="M 720.5,199.5 C 720.833,199.5 721.167,199.5 721.5,199.5C 721.5,209.167 721.5,218.833 721.5,228.5C 739.833,228.5 758.167,228.5 776.5,228.5C 776.5,228.833 776.5,229.167 776.5,229.5C 757.833,229.5 739.167,229.5 720.5,229.5C 720.5,219.5 720.5,209.5 720.5,199.5 Z"/></g>
<g><path style="opacity:1" fill="#553d2b" d="M 163.5,211.5 C 164.49,217.31 164.823,223.31 164.5,229.5C 182.833,229.5 201.167,229.5 219.5,229.5C 219.944,244.164 220.278,258.83 220.5,273.5C 220.5,277.5 220.5,281.5 220.5,285.5C 202.167,285.5 183.833,285.5 165.5,285.5C 164.707,267.178 164.373,248.845 164.5,230.5C 146.167,230.5 127.833,230.5 109.5,230.5C 109.5,238.167 109.5,245.833 109.5,253.5C 108.511,248.025 108.178,242.358 108.5,236.5C 108.5,234.167 108.5,231.833 108.5,229.5C 126.833,229.5 145.167,229.5 163.5,229.5C 163.5,223.5 163.5,217.5 163.5,211.5 Z"/></g>
<g><path style="opacity:1" fill="#5c4534" d="M 553.5,172.5 C 554.497,191.326 554.83,210.326 554.5,229.5C 572.833,229.5 591.167,229.5 609.5,229.5C 627.833,229.5 646.167,229.5 664.5,229.5C 664,248.163 663.667,266.83 663.5,285.5C 626.833,285.5 590.167,285.5 553.5,285.5C 553.5,266.833 553.5,248.167 553.5,229.5C 553.5,210.5 553.5,191.5 553.5,172.5 Z"/></g>
<g><path style="opacity:1" fill="#492f1e" d="M 165.5,285.5 C 147.167,285.5 128.833,285.5 110.5,285.5C 110.819,280.637 110.486,275.97 109.5,271.5C 109.5,265.5 109.5,259.5 109.5,253.5C 109.5,245.833 109.5,238.167 109.5,230.5C 127.833,230.5 146.167,230.5 164.5,230.5C 164.373,248.845 164.707,267.178 165.5,285.5 Z"/></g>
<g><path style="opacity:1" fill="#675445" d="M 219.5,229.5 C 238.167,229.5 256.833,229.5 275.5,229.5C 275.295,248.182 275.628,266.848 276.5,285.5C 258.167,285.5 239.833,285.5 221.5,285.5C 221.817,281.298 221.483,277.298 220.5,273.5C 220.278,258.83 219.944,244.164 219.5,229.5 Z"/></g>
<g><path style="opacity:1" fill="#716255" d="M 275.5,229.5 C 293.833,229.5 312.167,229.5 330.5,229.5C 330.19,232.713 330.523,235.713 331.5,238.5C 331.5,254.167 331.5,269.833 331.5,285.5C 313.167,285.5 294.833,285.5 276.5,285.5C 275.628,266.848 275.295,248.182 275.5,229.5 Z"/></g>
<g><path style="opacity:1" fill="#5d4635" d="M 386.5,229.5 C 386.5,248.5 386.5,267.5 386.5,286.5C 405.167,286.5 423.833,286.5 442.5,286.5C 442.5,305.167 442.5,323.833 442.5,342.5C 424.167,342.5 405.833,342.5 387.5,342.5C 369.167,342.5 350.833,342.5 332.5,342.5C 331.843,323.841 331.509,305.174 331.5,286.5C 313.167,286.5 294.833,286.5 276.5,286.5C 276.205,305.201 276.538,323.867 277.5,342.5C 258.833,342.5 240.167,342.5 221.5,342.5C 221.632,323.822 221.298,305.155 220.5,286.5C 202.167,286.5 183.833,286.5 165.5,286.5C 165.5,286.167 165.5,285.833 165.5,285.5C 183.833,285.5 202.167,285.5 220.5,285.5C 220.5,281.5 220.5,277.5 220.5,273.5C 221.483,277.298 221.817,281.298 221.5,285.5C 239.833,285.5 258.167,285.5 276.5,285.5C 294.833,285.5 313.167,285.5 331.5,285.5C 331.5,269.833 331.5,254.167 331.5,238.5C 331.5,235.5 331.5,232.5 331.5,229.5C 349.833,229.5 368.167,229.5 386.5,229.5 Z"/></g>
<g><path style="opacity:1" fill="#553d2b" d="M 386.5,229.5 C 405.167,229.5 423.833,229.5 442.5,229.5C 479.5,229.5 516.5,229.5 553.5,229.5C 553.5,248.167 553.5,266.833 553.5,285.5C 516.33,285.168 479.33,285.502 442.5,286.5C 423.833,286.5 405.167,286.5 386.5,286.5C 386.5,267.5 386.5,248.5 386.5,229.5 Z"/></g>
<g><path style="opacity:0.986" fill="#fef4c5" d="M 107.5,228.5 C 107.194,231.385 107.527,234.052 108.5,236.5C 108.178,242.358 108.511,248.025 109.5,253.5C 109.5,259.5 109.5,265.5 109.5,271.5C 109.5,276.167 109.5,280.833 109.5,285.5C 91.1667,285.5 72.8333,285.5 54.5,285.5C 54.1786,291.026 54.5119,296.36 55.5,301.5C 55.9897,333.856 56.9897,366.19 58.5,398.5C 59.3057,437.343 60.639,476.01 62.5,514.5C 63.0918,548.847 64.0918,583.18 65.5,617.5C 83.3256,618.497 101.326,618.83 119.5,618.5C 119.176,625.354 119.509,632.021 120.5,638.5C 120.5,649.5 120.5,660.5 120.5,671.5C 138.5,671.5 156.5,671.5 174.5,671.5C 174.185,675.371 174.518,679.038 175.5,682.5C 175.5,696.167 175.5,709.833 175.5,723.5C 175.5,724.167 175.5,724.833 175.5,725.5C 157.5,725.5 139.5,725.5 121.5,725.5C 121.146,707.928 120.479,690.428 119.5,673C 101.836,672.5 84.1698,672.333 66.5,672.5C 65.5894,654.849 64.9227,637.182 64.5,619.5C 46.5899,619.826 28.7566,619.492 11,618.5C 7.09989,524.681 3.26655,431.014 -0.5,337.5C -0.5,319.833 -0.5,302.167 -0.5,284.5C 17.5,284.5 35.5,284.5 53.5,284.5C 52.7094,266.162 52.2094,247.828 52,229.5C 70.4235,228.507 88.9235,228.174 107.5,228.5 Z"/></g>
<g><path style="opacity:1" fill="#a18f6f" d="M 109.5,271.5 C 110.486,275.97 110.819,280.637 110.5,285.5C 110.5,285.833 110.5,286.167 110.5,286.5C 92.1667,286.5 73.8333,286.5 55.5,286.5C 55.5,291.5 55.5,296.5 55.5,301.5C 54.5119,296.36 54.1786,291.026 54.5,285.5C 72.8333,285.5 91.1667,285.5 109.5,285.5C 109.5,280.833 109.5,276.167 109.5,271.5 Z"/></g>
<g><path style="opacity:1" fill="#a39171" d="M 774.5,286.5 C 774.5,286.167 774.5,285.833 774.5,285.5C 793.167,285.5 811.833,285.5 830.5,285.5C 830.815,289.371 830.482,293.038 829.5,296.5C 829.5,293.167 829.5,289.833 829.5,286.5C 811.167,286.5 792.833,286.5 774.5,286.5 Z"/></g>
<g><path style="opacity:0.986" fill="#fef4c5" d="M 777.5,213.5 C 777.5,218.5 777.5,223.5 777.5,228.5C 795.833,228.5 814.167,228.5 832.5,228.5C 832.296,247.17 831.962,265.836 831.5,284.5C 849.5,284.5 867.5,284.5 885.5,284.5C 885.5,303.833 885.5,323.167 885.5,342.5C 883.443,397.692 881.443,453.026 879.5,508.5C 861.167,508.5 842.833,508.5 824.5,508.5C 825.042,490.505 825.375,472.505 825.5,454.5C 826.394,433.515 827.061,412.515 827.5,391.5C 828.5,359.841 829.166,328.175 829.5,296.5C 830.482,293.038 830.815,289.371 830.5,285.5C 811.833,285.5 793.167,285.5 774.5,285.5C 774.5,283.833 774.5,282.167 774.5,280.5C 775.255,263.655 775.921,246.655 776.5,229.5C 776.5,229.167 776.5,228.833 776.5,228.5C 776.179,223.305 776.513,218.305 777.5,213.5 Z"/></g>
<g><path style="opacity:1" fill="#492f1e" d="M 110.5,286.5 C 111.525,323.848 112.525,361.181 113.5,398.5C 95.1667,398.5 76.8333,398.5 58.5,398.5C 56.9897,366.19 55.9897,333.856 55.5,301.5C 55.5,296.5 55.5,291.5 55.5,286.5C 73.8333,286.5 92.1667,286.5 110.5,286.5 Z"/></g>
<g><path style="opacity:1" fill="#543c2a" d="M 110.5,285.5 C 128.833,285.5 147.167,285.5 165.5,285.5C 165.5,285.833 165.5,286.167 165.5,286.5C 165.879,305.166 166.213,323.832 166.5,342.5C 167.021,361.19 167.687,379.857 168.5,398.5C 150.167,398.5 131.833,398.5 113.5,398.5C 112.525,361.181 111.525,323.848 110.5,286.5C 110.5,286.167 110.5,285.833 110.5,285.5 Z"/></g>
<g><path style="opacity:1" fill="#675445" d="M 165.5,286.5 C 183.833,286.5 202.167,286.5 220.5,286.5C 221.298,305.155 221.632,323.822 221.5,342.5C 203.167,342.5 184.833,342.5 166.5,342.5C 166.213,323.832 165.879,305.166 165.5,286.5 Z"/></g>
<g><path style="opacity:1" fill="#553d2b" d="M 332.5,342.5 C 332.5,361.167 332.5,379.833 332.5,398.5C 350.833,398.5 369.167,398.5 387.5,398.5C 387.5,379.833 387.5,361.167 387.5,342.5C 405.833,342.5 424.167,342.5 442.5,342.5C 442.5,361.167 442.5,379.833 442.5,398.5C 460.833,398.5 479.167,398.5 497.5,398.5C 497.5,416.833 497.5,435.167 497.5,453.5C 424.833,453.5 352.167,453.5 279.5,453.5C 279.21,435.14 278.544,416.807 277.5,398.5C 259.5,398.5 241.5,398.5 223.5,398.5C 223.249,416.854 223.582,435.187 224.5,453.5C 242.674,453.17 260.674,453.503 278.5,454.5C 242.5,454.5 206.5,454.5 170.5,454.5C 170.5,462.167 170.5,469.833 170.5,477.5C 169.508,470.018 169.175,462.352 169.5,454.5C 169.5,454.167 169.5,453.833 169.5,453.5C 168.825,435.174 168.491,416.841 168.5,398.5C 186.5,398.5 204.5,398.5 222.5,398.5C 222.753,379.813 222.42,361.146 221.5,342.5C 240.167,342.5 258.833,342.5 277.5,342.5C 276.538,323.867 276.205,305.201 276.5,286.5C 294.833,286.5 313.167,286.5 331.5,286.5C 331.509,305.174 331.843,323.841 332.5,342.5 Z"/></g>
<g><path style="opacity:1" fill="#716255" d="M 442.5,286.5 C 460.833,286.5 479.167,286.5 497.5,286.5C 497.5,305.167 497.5,323.833 497.5,342.5C 479.167,342.5 460.833,342.5 442.5,342.5C 442.5,323.833 442.5,305.167 442.5,286.5 Z"/></g>
<g><path style="opacity:1" fill="#675445" d="M 442.5,286.5 C 479.33,285.502 516.33,285.168 553.5,285.5C 553.616,304.511 553.283,323.511 552.5,342.5C 534.167,342.5 515.833,342.5 497.5,342.5C 497.5,323.833 497.5,305.167 497.5,286.5C 479.167,286.5 460.833,286.5 442.5,286.5 Z"/></g>
<g><path style="opacity:1" fill="#553d2b" d="M 720.5,199.5 C 720.5,209.5 720.5,219.5 720.5,229.5C 739.167,229.5 757.833,229.5 776.5,229.5C 775.921,246.655 775.255,263.655 774.5,280.5C 774.5,282.167 774.5,283.833 774.5,285.5C 774.5,285.833 774.5,286.167 774.5,286.5C 773.345,323.823 772.678,361.156 772.5,398.5C 772.823,404.69 772.49,410.69 771.5,416.5C 771.5,410.5 771.5,404.5 771.5,398.5C 753.5,398.5 735.5,398.5 717.5,398.5C 717.5,388.5 717.5,378.5 717.5,368.5C 718.474,341.335 719.141,314.002 719.5,286.5C 701.167,286.5 682.833,286.5 664.5,286.5C 663.538,305.133 663.205,323.799 663.5,342.5C 645.167,342.5 626.833,342.5 608.5,342.5C 607.663,361.154 607.33,379.82 607.5,398.5C 589.167,398.5 570.833,398.5 552.5,398.5C 552.5,379.833 552.5,361.167 552.5,342.5C 553.283,323.511 553.616,304.511 553.5,285.5C 590.167,285.5 626.833,285.5 663.5,285.5C 663.667,266.83 664,248.163 664.5,229.5C 682.833,229.5 701.167,229.5 719.5,229.5C 719.173,219.319 719.506,209.319 720.5,199.5 Z"/></g>
<g><path style="opacity:1" fill="#492f1e" d="M 774.5,280.5 C 773.549,281.919 773.216,283.585 773.5,285.5C 755.5,285.5 737.5,285.5 719.5,285.5C 719.722,267.164 720.056,248.831 720.5,230.5C 738.833,230.5 757.167,230.5 775.5,230.5C 774.559,247.139 774.225,263.805 774.5,280.5 Z"/></g>
<g><path style="opacity:1" fill="#5c4535" d="M 717.5,368.5 C 717.5,359.833 717.5,351.167 717.5,342.5C 699.5,342.5 681.5,342.5 663.5,342.5C 663.205,323.799 663.538,305.133 664.5,286.5C 682.833,286.5 701.167,286.5 719.5,286.5C 719.141,314.002 718.474,341.335 717.5,368.5 Z"/></g>
<g><path style="opacity:1" fill="#492f1e" d="M 774.5,286.5 C 792.833,286.5 811.167,286.5 829.5,286.5C 829.5,289.833 829.5,293.167 829.5,296.5C 829.166,328.175 828.5,359.841 827.5,391.5C 826.532,393.607 826.198,395.941 826.5,398.5C 808.5,398.5 790.5,398.5 772.5,398.5C 772.678,361.156 773.345,323.823 774.5,286.5 Z"/></g>
<g><path style="opacity:1" fill="#5d4635" d="M 663.5,342.5 C 662.9,361.161 662.567,379.827 662.5,398.5C 644.167,398.5 625.833,398.5 607.5,398.5C 607.33,379.82 607.663,361.154 608.5,342.5C 626.833,342.5 645.167,342.5 663.5,342.5 Z"/></g>
<g><path style="opacity:1" fill="#5c4534" d="M 166.5,342.5 C 184.833,342.5 203.167,342.5 221.5,342.5C 222.42,361.146 222.753,379.813 222.5,398.5C 204.5,398.5 186.5,398.5 168.5,398.5C 167.687,379.857 167.021,361.19 166.5,342.5 Z"/></g>
<g><path style="opacity:1" fill="#675445" d="M 332.5,342.5 C 350.833,342.5 369.167,342.5 387.5,342.5C 387.5,361.167 387.5,379.833 387.5,398.5C 369.167,398.5 350.833,398.5 332.5,398.5C 332.5,379.833 332.5,361.167 332.5,342.5 Z"/></g>
<g><path style="opacity:1" fill="#5d4635" d="M 442.5,342.5 C 460.833,342.5 479.167,342.5 497.5,342.5C 515.833,342.5 534.167,342.5 552.5,342.5C 552.5,361.167 552.5,379.833 552.5,398.5C 552.5,416.833 552.5,435.167 552.5,453.5C 534.167,453.5 515.833,453.5 497.5,453.5C 497.5,435.167 497.5,416.833 497.5,398.5C 479.167,398.5 460.833,398.5 442.5,398.5C 442.5,379.833 442.5,361.167 442.5,342.5 Z"/></g>
<g><path style="opacity:1" fill="#675445" d="M 663.5,342.5 C 681.5,342.5 699.5,342.5 717.5,342.5C 717.5,351.167 717.5,359.833 717.5,368.5C 717.5,378.5 717.5,388.5 717.5,398.5C 699.167,398.5 680.833,398.5 662.5,398.5C 662.567,379.827 662.9,361.161 663.5,342.5 Z"/></g>
<g><path style="opacity:1" fill="#255814" d="M 58.5,398.5 C 76.8333,398.5 95.1667,398.5 113.5,398.5C 113.567,414.507 113.9,430.507 114.5,446.5C 114.194,449.385 114.527,452.052 115.5,454.5C 115.319,472.514 115.652,490.514 116.5,508.5C 116.5,510.833 116.5,513.167 116.5,515.5C 115.539,513.735 115.205,511.735 115.5,509.5C 97.8333,509.5 80.1667,509.5 62.5,509.5C 62.5,511.167 62.5,512.833 62.5,514.5C 60.639,476.01 59.3057,437.343 58.5,398.5 Z"/></g>
<g><path style="opacity:1" fill="#482f1e" d="M 113.5,398.5 C 131.833,398.5 150.167,398.5 168.5,398.5C 168.491,416.841 168.825,435.174 169.5,453.5C 151.5,453.5 133.5,453.5 115.5,453.5C 115.802,450.941 115.468,448.607 114.5,446.5C 113.9,430.507 113.567,414.507 113.5,398.5 Z"/></g>
<g><path style="opacity:1" fill="#685546" d="M 552.5,398.5 C 570.833,398.5 589.167,398.5 607.5,398.5C 607.5,416.833 607.5,435.167 607.5,453.5C 625.5,453.5 643.5,453.5 661.5,453.5C 661.5,453.833 661.5,454.167 661.5,454.5C 643.5,454.5 625.5,454.5 607.5,454.5C 607.795,456.735 607.461,458.735 606.5,460.5C 606.5,458.5 606.5,456.5 606.5,454.5C 570.167,454.5 533.833,454.5 497.5,454.5C 497.5,454.167 497.5,453.833 497.5,453.5C 515.833,453.5 534.167,453.5 552.5,453.5C 552.5,435.167 552.5,416.833 552.5,398.5 Z"/></g>
<g><path style="opacity:1" fill="#716255" d="M 607.5,398.5 C 625.833,398.5 644.167,398.5 662.5,398.5C 662.535,416.842 662.202,435.175 661.5,453.5C 643.5,453.5 625.5,453.5 607.5,453.5C 607.5,435.167 607.5,416.833 607.5,398.5 Z"/></g>
<g><path style="opacity:1" fill="#5c4634" d="M 662.5,398.5 C 680.833,398.5 699.167,398.5 717.5,398.5C 717.098,416.832 716.764,435.165 716.5,453.5C 716.5,453.833 716.5,454.167 716.5,454.5C 716.5,462.833 716.5,471.167 716.5,479.5C 716.167,479.5 715.833,479.5 715.5,479.5C 715.5,470.833 715.5,462.167 715.5,453.5C 697.5,453.5 679.5,453.5 661.5,453.5C 662.202,435.175 662.535,416.842 662.5,398.5 Z"/></g>
<g><path style="opacity:1" fill="#492f1e" d="M 717.5,398.5 C 735.5,398.5 753.5,398.5 771.5,398.5C 771.5,404.5 771.5,410.5 771.5,416.5C 771.5,423.833 771.5,431.167 771.5,438.5C 770.513,443.305 770.179,448.305 770.5,453.5C 752.5,453.5 734.5,453.5 716.5,453.5C 716.764,435.165 717.098,416.832 717.5,398.5 Z"/></g>
<g><path style="opacity:1" fill="#255814" d="M 827.5,391.5 C 827.061,412.515 826.394,433.515 825.5,454.5C 807.5,454.5 789.5,454.5 771.5,454.5C 771.5,449.167 771.5,443.833 771.5,438.5C 771.5,431.167 771.5,423.833 771.5,416.5C 772.49,410.69 772.823,404.69 772.5,398.5C 790.5,398.5 808.5,398.5 826.5,398.5C 826.198,395.941 826.532,393.607 827.5,391.5 Z"/></g>
<g><path style="opacity:1" fill="#415221" d="M 114.5,446.5 C 115.468,448.607 115.802,450.941 115.5,453.5C 133.5,453.5 151.5,453.5 169.5,453.5C 169.5,453.833 169.5,454.167 169.5,454.5C 151.5,454.5 133.5,454.5 115.5,454.5C 114.527,452.052 114.194,449.385 114.5,446.5 Z"/></g>
<g><path style="opacity:1" fill="#475827" d="M 771.5,438.5 C 771.5,443.833 771.5,449.167 771.5,454.5C 771.167,454.5 770.833,454.5 770.5,454.5C 752.5,454.5 734.5,454.5 716.5,454.5C 716.5,454.167 716.5,453.833 716.5,453.5C 734.5,453.5 752.5,453.5 770.5,453.5C 770.179,448.305 770.513,443.305 771.5,438.5 Z"/></g>
<g><path style="opacity:1" fill="#3c7a27" d="M 115.5,454.5 C 133.5,454.5 151.5,454.5 169.5,454.5C 169.175,462.352 169.508,470.018 170.5,477.5C 170.5,484.167 170.5,490.833 170.5,497.5C 170.5,501.167 170.5,504.833 170.5,508.5C 152.5,508.5 134.5,508.5 116.5,508.5C 115.652,490.514 115.319,472.514 115.5,454.5 Z"/></g>
<g><path style="opacity:1" fill="#492f1e" d="M 278.5,454.5 C 279.348,472.486 279.681,490.486 279.5,508.5C 243.5,508.5 207.5,508.5 171.5,508.5C 171.815,504.629 171.482,500.962 170.5,497.5C 170.5,490.833 170.5,484.167 170.5,477.5C 170.5,469.833 170.5,462.167 170.5,454.5C 206.5,454.5 242.5,454.5 278.5,454.5 Z"/></g>
<g><path style="opacity:1" fill="#5c4534" d="M 497.5,453.5 C 497.5,453.833 497.5,454.167 497.5,454.5C 461.167,454.5 424.833,454.5 388.5,454.5C 388.5,472.5 388.5,490.5 388.5,508.5C 424.833,508.5 461.167,508.5 497.5,508.5C 533.833,508.5 570.167,508.5 606.5,508.5C 606.5,508.833 606.5,509.167 606.5,509.5C 497.833,509.5 389.167,509.5 280.5,509.5C 280.5,515.5 280.5,521.5 280.5,527.5C 279.51,521.69 279.177,515.69 279.5,509.5C 279.5,509.167 279.5,508.833 279.5,508.5C 279.681,490.486 279.348,472.486 278.5,454.5C 260.674,453.503 242.674,453.17 224.5,453.5C 223.582,435.187 223.249,416.854 223.5,398.5C 241.5,398.5 259.5,398.5 277.5,398.5C 278.544,416.807 279.21,435.14 279.5,453.5C 352.167,453.5 424.833,453.5 497.5,453.5 Z"/></g>
<g><path style="opacity:1" fill="#675445" d="M 497.5,454.5 C 497.5,472.5 497.5,490.5 497.5,508.5C 461.167,508.5 424.833,508.5 388.5,508.5C 388.5,490.5 388.5,472.5 388.5,454.5C 424.833,454.5 461.167,454.5 497.5,454.5 Z"/></g>
<g><path style="opacity:1" fill="#716255" d="M 497.5,454.5 C 533.833,454.5 570.167,454.5 606.5,454.5C 606.5,456.5 606.5,458.5 606.5,460.5C 606.5,476.5 606.5,492.5 606.5,508.5C 570.167,508.5 533.833,508.5 497.5,508.5C 497.5,490.5 497.5,472.5 497.5,454.5 Z"/></g>
<g><path style="opacity:1" fill="#553d2b" d="M 661.5,454.5 C 661.5,472.5 661.5,490.5 661.5,508.5C 643.167,508.5 624.833,508.5 606.5,508.5C 606.5,492.5 606.5,476.5 606.5,460.5C 607.461,458.735 607.795,456.735 607.5,454.5C 625.5,454.5 643.5,454.5 661.5,454.5 Z"/></g>
<g><path style="opacity:1" fill="#492f1e" d="M 661.5,453.5 C 679.5,453.5 697.5,453.5 715.5,453.5C 715.5,462.167 715.5,470.833 715.5,479.5C 715.5,489.167 715.5,498.833 715.5,508.5C 697.5,508.5 679.5,508.5 661.5,508.5C 661.5,490.5 661.5,472.5 661.5,454.5C 661.5,454.167 661.5,453.833 661.5,453.5 Z"/></g>
<g><path style="opacity:1" fill="#4c8e37" d="M 716.5,454.5 C 734.5,454.5 752.5,454.5 770.5,454.5C 770.819,472.577 770.486,490.577 769.5,508.5C 751.833,508.5 734.167,508.5 716.5,508.5C 716.5,498.833 716.5,489.167 716.5,479.5C 716.5,471.167 716.5,462.833 716.5,454.5 Z"/></g>
<g><path style="opacity:1" fill="#1f4711" d="M 770.5,454.5 C 770.833,454.5 771.167,454.5 771.5,454.5C 789.5,454.5 807.5,454.5 825.5,454.5C 825.375,472.505 825.042,490.505 824.5,508.5C 823.482,544.833 822.482,581.166 821.5,617.5C 803.5,617.5 785.5,617.5 767.5,617.5C 768.108,599.506 768.441,581.506 768.5,563.5C 769.314,545.179 769.647,526.845 769.5,508.5C 770.486,490.577 770.819,472.577 770.5,454.5 Z"/></g>
<g><path style="opacity:1" fill="#465725" d="M 170.5,497.5 C 171.482,500.962 171.815,504.629 171.5,508.5C 207.5,508.5 243.5,508.5 279.5,508.5C 279.5,508.833 279.5,509.167 279.5,509.5C 261.5,509.5 243.5,509.5 225.5,509.5C 207.167,509.5 188.833,509.5 170.5,509.5C 170.5,509.167 170.5,508.833 170.5,508.5C 170.5,504.833 170.5,501.167 170.5,497.5 Z"/></g>
<g><path style="opacity:1" fill="#1f4710" d="M 116.5,515.5 C 117.479,527.42 117.812,539.42 117.5,551.5C 118.11,573.502 118.776,595.502 119.5,617.5C 101.5,617.5 83.5,617.5 65.5,617.5C 64.0918,583.18 63.0918,548.847 62.5,514.5C 62.5,512.833 62.5,511.167 62.5,509.5C 80.1667,509.5 97.8333,509.5 115.5,509.5C 115.205,511.735 115.539,513.735 116.5,515.5 Z"/></g>
<g><path style="opacity:1" fill="#336e1f" d="M 116.5,508.5 C 134.5,508.5 152.5,508.5 170.5,508.5C 170.5,508.833 170.5,509.167 170.5,509.5C 171.086,527.513 171.752,545.513 172.5,563.5C 154.5,563.5 136.5,563.5 118.5,563.5C 118.817,559.298 118.483,555.298 117.5,551.5C 117.812,539.42 117.479,527.42 116.5,515.5C 116.5,513.167 116.5,510.833 116.5,508.5 Z"/></g>
<g><path style="opacity:1" fill="#4c8e37" d="M 170.5,509.5 C 188.833,509.5 207.167,509.5 225.5,509.5C 225.448,527.509 225.781,545.509 226.5,563.5C 208.5,563.5 190.5,563.5 172.5,563.5C 171.752,545.513 171.086,527.513 170.5,509.5 Z"/></g>
<g><path style="opacity:1" fill="#336e1f" d="M 225.5,509.5 C 243.5,509.5 261.5,509.5 279.5,509.5C 279.177,515.69 279.51,521.69 280.5,527.5C 280.5,537.833 280.5,548.167 280.5,558.5C 280.5,560.167 280.5,561.833 280.5,563.5C 262.5,563.5 244.5,563.5 226.5,563.5C 225.781,545.509 225.448,527.509 225.5,509.5 Z"/></g>
<g><path style="opacity:1" fill="#482f1e" d="M 606.5,509.5 C 606.5,510.5 606.5,511.5 606.5,512.5C 605.503,528.992 605.17,545.658 605.5,562.5C 497.5,562.5 389.5,562.5 281.5,562.5C 281.768,560.901 281.434,559.568 280.5,558.5C 280.5,548.167 280.5,537.833 280.5,527.5C 280.5,521.5 280.5,515.5 280.5,509.5C 389.167,509.5 497.833,509.5 606.5,509.5 Z"/></g>
<g><path style="opacity:1" fill="#3d7b28" d="M 606.5,509.5 C 624.5,509.5 642.5,509.5 660.5,509.5C 660.5,527.5 660.5,545.5 660.5,563.5C 659.503,581.326 659.17,599.326 659.5,617.5C 641.5,617.5 623.5,617.5 605.5,617.5C 605.5,599.833 605.5,582.167 605.5,564.5C 587.5,564.5 569.5,564.5 551.5,564.5C 551.5,564.167 551.5,563.833 551.5,563.5C 569.833,563.5 588.167,563.5 606.5,563.5C 606.5,546.5 606.5,529.5 606.5,512.5C 606.5,511.5 606.5,510.5 606.5,509.5 Z"/></g>
<g><path style="opacity:1" fill="#65b24c" d="M 660.5,509.5 C 678.833,509.5 697.167,509.5 715.5,509.5C 715.119,527.499 714.786,545.499 714.5,563.5C 696.5,563.5 678.5,563.5 660.5,563.5C 660.5,545.5 660.5,527.5 660.5,509.5 Z"/></g>
<g><path style="opacity:1" fill="#346e20" d="M 715.5,479.5 C 715.833,479.5 716.167,479.5 716.5,479.5C 716.5,489.167 716.5,498.833 716.5,508.5C 734.167,508.5 751.833,508.5 769.5,508.5C 769.647,526.845 769.314,545.179 768.5,563.5C 750.5,563.5 732.5,563.5 714.5,563.5C 714.786,545.499 715.119,527.499 715.5,509.5C 697.167,509.5 678.833,509.5 660.5,509.5C 642.5,509.5 624.5,509.5 606.5,509.5C 606.5,509.167 606.5,508.833 606.5,508.5C 624.833,508.5 643.167,508.5 661.5,508.5C 679.5,508.5 697.5,508.5 715.5,508.5C 715.5,498.833 715.5,489.167 715.5,479.5 Z"/></g>
<g><path style="opacity:1" fill="#4a3e22" d="M 606.5,512.5 C 606.5,529.5 606.5,546.5 606.5,563.5C 588.167,563.5 569.833,563.5 551.5,563.5C 497.5,563.5 443.5,563.5 389.5,563.5C 371.167,563.5 352.833,563.5 334.5,563.5C 316.5,563.5 298.5,563.5 280.5,563.5C 280.5,561.833 280.5,560.167 280.5,558.5C 281.434,559.568 281.768,560.901 281.5,562.5C 389.5,562.5 497.5,562.5 605.5,562.5C 605.17,545.658 605.503,528.992 606.5,512.5 Z"/></g>
<g><path style="opacity:1" fill="#255814" d="M 117.5,551.5 C 118.483,555.298 118.817,559.298 118.5,563.5C 136.5,563.5 154.5,563.5 172.5,563.5C 190.5,563.5 208.5,563.5 226.5,563.5C 226.591,581.506 226.924,599.506 227.5,617.5C 209.5,617.5 191.5,617.5 173.5,617.5C 173.5,618.833 173.5,620.167 173.5,621.5C 172.596,620.791 172.263,619.791 172.5,618.5C 155.167,618.5 137.833,618.5 120.5,618.5C 120.5,625.167 120.5,631.833 120.5,638.5C 119.509,632.021 119.176,625.354 119.5,618.5C 101.326,618.83 83.3256,618.497 65.5,617.5C 83.5,617.5 101.5,617.5 119.5,617.5C 118.776,595.502 118.11,573.502 117.5,551.5 Z"/></g>
<g><path style="opacity:1" fill="#3d7a28" d="M 226.5,563.5 C 244.5,563.5 262.5,563.5 280.5,563.5C 298.5,563.5 316.5,563.5 334.5,563.5C 334.5,563.833 334.5,564.167 334.5,564.5C 316.5,564.5 298.5,564.5 280.5,564.5C 280.858,582.166 281.191,599.833 281.5,617.5C 263.5,617.5 245.5,617.5 227.5,617.5C 226.924,599.506 226.591,581.506 226.5,563.5 Z"/></g>
<g><path style="opacity:1" fill="#245813" d="M 660.5,563.5 C 678.5,563.5 696.5,563.5 714.5,563.5C 732.5,563.5 750.5,563.5 768.5,563.5C 768.441,581.506 768.108,599.506 767.5,617.5C 767.5,617.833 767.5,618.167 767.5,618.5C 749.821,618.167 732.154,618.5 714.5,619.5C 713.514,636.453 713.181,653.453 713.5,670.5C 713.167,670.5 712.833,670.5 712.5,670.5C 712.181,653.119 712.514,635.786 713.5,618.5C 695.512,617.5 677.512,617.167 659.5,617.5C 659.17,599.326 659.503,581.326 660.5,563.5 Z"/></g>
<g><path style="opacity:1" fill="#4c8d37" d="M 334.5,564.5 C 335.26,582.156 335.594,599.823 335.5,617.5C 353.5,617.5 371.5,617.5 389.5,617.5C 407.5,617.5 425.5,617.5 443.5,617.5C 479.5,617.5 515.5,617.5 551.5,617.5C 569.5,617.5 587.5,617.5 605.5,617.5C 605.5,617.833 605.5,618.167 605.5,618.5C 587.5,618.5 569.5,618.5 551.5,618.5C 479.5,618.5 407.5,618.5 335.5,618.5C 317.5,618.5 299.5,618.5 281.5,618.5C 281.5,618.167 281.5,617.833 281.5,617.5C 281.191,599.833 280.858,582.166 280.5,564.5C 298.5,564.5 316.5,564.5 334.5,564.5 Z"/></g>
<g><path style="opacity:1" fill="#65b24c" d="M 334.5,563.5 C 352.833,563.5 371.167,563.5 389.5,563.5C 389.5,581.5 389.5,599.5 389.5,617.5C 371.5,617.5 353.5,617.5 335.5,617.5C 335.594,599.823 335.26,582.156 334.5,564.5C 334.5,564.167 334.5,563.833 334.5,563.5 Z"/></g>
<g><path style="opacity:1" fill="#4d8f38" d="M 389.5,563.5 C 443.5,563.5 497.5,563.5 551.5,563.5C 551.5,563.833 551.5,564.167 551.5,564.5C 515.5,564.5 479.5,564.5 443.5,564.5C 443.5,582.167 443.5,599.833 443.5,617.5C 425.5,617.5 407.5,617.5 389.5,617.5C 389.5,599.5 389.5,581.5 389.5,563.5 Z"/></g>
<g><path style="opacity:1" fill="#65b24c" d="M 551.5,564.5 C 551.5,582.167 551.5,599.833 551.5,617.5C 515.5,617.5 479.5,617.5 443.5,617.5C 443.5,599.833 443.5,582.167 443.5,564.5C 479.5,564.5 515.5,564.5 551.5,564.5 Z"/></g>
<g><path style="opacity:1" fill="#4d8f38" d="M 551.5,564.5 C 569.5,564.5 587.5,564.5 605.5,564.5C 605.5,582.167 605.5,599.833 605.5,617.5C 587.5,617.5 569.5,617.5 551.5,617.5C 551.5,599.833 551.5,582.167 551.5,564.5 Z"/></g>
<g><path style="opacity:1" fill="#1f4710" d="M 173.5,621.5 C 174.055,638.161 174.389,654.828 174.5,671.5C 156.5,671.5 138.5,671.5 120.5,671.5C 120.5,660.5 120.5,649.5 120.5,638.5C 120.5,631.833 120.5,625.167 120.5,618.5C 137.833,618.5 155.167,618.5 172.5,618.5C 172.263,619.791 172.596,620.791 173.5,621.5 Z"/></g>
<g><path style="opacity:1" fill="#326d1e" d="M 227.5,617.5 C 245.5,617.5 263.5,617.5 281.5,617.5C 281.5,617.833 281.5,618.167 281.5,618.5C 263.5,618.5 245.5,618.5 227.5,618.5C 227.809,636.167 228.142,653.834 228.5,671.5C 210.833,671.5 193.167,671.5 175.5,671.5C 175.5,675.167 175.5,678.833 175.5,682.5C 174.518,679.038 174.185,675.371 174.5,671.5C 174.389,654.828 174.055,638.161 173.5,621.5C 173.5,620.167 173.5,618.833 173.5,617.5C 191.5,617.5 209.5,617.5 227.5,617.5 Z"/></g>
<g><path style="opacity:1" fill="#245813" d="M 281.5,618.5 C 281.539,636.174 281.873,653.84 282.5,671.5C 264.5,671.5 246.5,671.5 228.5,671.5C 228.142,653.834 227.809,636.167 227.5,618.5C 245.5,618.5 263.5,618.5 281.5,618.5 Z"/></g>
<g><path style="opacity:1" fill="#326d1e" d="M 281.5,618.5 C 299.5,618.5 317.5,618.5 335.5,618.5C 335.286,636.183 335.619,653.85 336.5,671.5C 318.5,671.5 300.5,671.5 282.5,671.5C 281.873,653.84 281.539,636.174 281.5,618.5 Z"/></g>
<g><path style="opacity:1" fill="#245813" d="M 335.5,618.5 C 407.5,618.5 479.5,618.5 551.5,618.5C 551.5,636.167 551.5,653.833 551.5,671.5C 533.5,671.5 515.5,671.5 497.5,671.5C 479.5,671.5 461.5,671.5 443.5,671.5C 407.833,671.5 372.167,671.5 336.5,671.5C 335.619,653.85 335.286,636.183 335.5,618.5 Z"/></g>
<g><path style="opacity:1" fill="#326d1e" d="M 551.5,618.5 C 569.5,618.5 587.5,618.5 605.5,618.5C 605.5,636.167 605.5,653.833 605.5,671.5C 587.5,671.5 569.5,671.5 551.5,671.5C 551.5,653.833 551.5,636.167 551.5,618.5 Z"/></g>
<g><path style="opacity:1" fill="#245813" d="M 605.5,618.5 C 623.5,618.5 641.5,618.5 659.5,618.5C 659.57,636.176 659.237,653.843 658.5,671.5C 640.833,671.5 623.167,671.5 605.5,671.5C 605.5,653.833 605.5,636.167 605.5,618.5 Z"/></g>
<g><path style="opacity:1" fill="#326d1e" d="M 605.5,618.5 C 605.5,618.167 605.5,617.833 605.5,617.5C 623.5,617.5 641.5,617.5 659.5,617.5C 677.512,617.167 695.512,617.5 713.5,618.5C 712.514,635.786 712.181,653.119 712.5,670.5C 712.5,670.833 712.5,671.167 712.5,671.5C 694.5,671.5 676.5,671.5 658.5,671.5C 659.237,653.843 659.57,636.176 659.5,618.5C 641.5,618.5 623.5,618.5 605.5,618.5 Z"/></g>
<g><path style="opacity:1" fill="#1e4710" d="M 767.5,618.5 C 767.826,626.684 767.492,634.684 766.5,642.5C 765.506,651.652 765.173,660.985 765.5,670.5C 748.167,670.5 730.833,670.5 713.5,670.5C 713.181,653.453 713.514,636.453 714.5,619.5C 732.154,618.5 749.821,618.167 767.5,618.5 Z"/></g>
<g><path style="opacity:1" fill="#3c5f2c" d="M 766.5,642.5 C 766.5,652.167 766.5,661.833 766.5,671.5C 748.5,671.5 730.5,671.5 712.5,671.5C 712.5,671.167 712.5,670.833 712.5,670.5C 712.833,670.5 713.167,670.5 713.5,670.5C 730.833,670.5 748.167,670.5 765.5,670.5C 765.173,660.985 765.506,651.652 766.5,642.5 Z"/></g>
<g><path style="opacity:1" fill="#1e4710" d="M 228.5,671.5 C 246.5,671.5 264.5,671.5 282.5,671.5C 282.303,689.182 282.637,706.849 283.5,724.5C 247.427,724.826 211.427,724.493 175.5,723.5C 175.5,709.833 175.5,696.167 175.5,682.5C 175.5,678.833 175.5,675.167 175.5,671.5C 193.167,671.5 210.833,671.5 228.5,671.5 Z"/></g>
<g><path style="opacity:1" fill="#245713" d="M 282.5,671.5 C 300.5,671.5 318.5,671.5 336.5,671.5C 336.5,689.167 336.5,706.833 336.5,724.5C 318.833,724.5 301.167,724.5 283.5,724.5C 282.637,706.849 282.303,689.182 282.5,671.5 Z"/></g>
<g><path style="opacity:1" fill="#245713" d="M 551.5,671.5 C 569.5,671.5 587.5,671.5 605.5,671.5C 604.515,688.756 604.181,706.09 604.5,723.5C 604.5,723.833 604.5,724.167 604.5,724.5C 586.5,724.5 568.5,724.5 550.5,724.5C 551.363,706.849 551.697,689.182 551.5,671.5 Z"/></g>
<g><path style="opacity:1" fill="#1e4710" d="M 605.5,671.5 C 623.167,671.5 640.833,671.5 658.5,671.5C 676.5,671.5 694.5,671.5 712.5,671.5C 712.5,672.833 712.5,674.167 712.5,675.5C 712.5,684.833 712.5,694.167 712.5,703.5C 712.167,703.5 711.833,703.5 711.5,703.5C 710.509,709.979 710.176,716.646 710.5,723.5C 675.167,723.5 639.833,723.5 604.5,723.5C 604.181,706.09 604.515,688.756 605.5,671.5 Z"/></g>
<g><path style="opacity:1" fill="#e2e1c5" d="M 712.5,671.5 C 730.5,671.5 748.5,671.5 766.5,671.5C 749.008,672.497 731.341,672.83 713.5,672.5C 713.737,673.791 713.404,674.791 712.5,675.5C 712.5,674.167 712.5,672.833 712.5,671.5 Z"/></g>
<g><path style="opacity:1" fill="#326d1e" d="M 336.5,671.5 C 372.167,671.5 407.833,671.5 443.5,671.5C 443.5,689.167 443.5,706.833 443.5,724.5C 407.833,724.5 372.167,724.5 336.5,724.5C 336.5,706.833 336.5,689.167 336.5,671.5 Z"/></g>
<g><path style="opacity:1" fill="#3c7a27" d="M 443.5,671.5 C 461.5,671.5 479.5,671.5 497.5,671.5C 497.5,689.167 497.5,706.833 497.5,724.5C 479.5,724.5 461.5,724.5 443.5,724.5C 443.5,706.833 443.5,689.167 443.5,671.5 Z"/></g>
<g><path style="opacity:1" fill="#326d1e" d="M 497.5,671.5 C 515.5,671.5 533.5,671.5 551.5,671.5C 551.697,689.182 551.363,706.849 550.5,724.5C 532.833,724.5 515.167,724.5 497.5,724.5C 497.5,706.833 497.5,689.167 497.5,671.5 Z"/></g>
<g><path style="opacity:0.977" fill="#fef8de" d="M 824.5,508.5 C 842.833,508.5 861.167,508.5 879.5,508.5C 878.989,545.189 877.823,581.855 876,618.5C 858.243,619.492 840.41,619.826 822.5,619.5C 822.238,637.076 821.571,654.576 820.5,672C 802.836,672.5 785.17,672.667 767.5,672.5C 767.119,690.071 766.452,707.571 765.5,725C 747.836,725.5 730.17,725.667 712.5,725.5C 712.5,718.167 712.5,710.833 712.5,703.5C 712.5,694.167 712.5,684.833 712.5,675.5C 713.404,674.791 713.737,673.791 713.5,672.5C 731.341,672.83 749.008,672.497 766.5,671.5C 766.5,661.833 766.5,652.167 766.5,642.5C 767.492,634.684 767.826,626.684 767.5,618.5C 767.5,618.167 767.5,617.833 767.5,617.5C 785.5,617.5 803.5,617.5 821.5,617.5C 822.482,581.166 823.482,544.833 824.5,508.5 Z"/></g>
<g><path style="opacity:1" fill="#375b27" d="M 711.5,703.5 C 711.5,710.5 711.5,717.5 711.5,724.5C 675.833,724.5 640.167,724.5 604.5,724.5C 604.5,724.167 604.5,723.833 604.5,723.5C 639.833,723.5 675.167,723.5 710.5,723.5C 710.176,716.646 710.509,709.979 711.5,703.5 Z"/></g>
<g><path style="opacity:0.999" fill="#e0e0c3" d="M 175.5,723.5 C 211.427,724.493 247.427,724.826 283.5,724.5C 283.5,731.833 283.5,739.167 283.5,746.5C 282.509,739.687 282.175,732.687 282.5,725.5C 246.833,725.5 211.167,725.5 175.5,725.5C 175.5,724.833 175.5,724.167 175.5,723.5 Z"/></g>
<g><path style="opacity:1" fill="#1e4710" d="M 283.5,724.5 C 301.167,724.5 318.833,724.5 336.5,724.5C 372.167,724.5 407.833,724.5 443.5,724.5C 461.5,724.5 479.5,724.5 497.5,724.5C 515.167,724.5 532.833,724.5 550.5,724.5C 568.5,724.5 586.5,724.5 604.5,724.5C 604.5,724.833 604.5,725.167 604.5,725.5C 603.503,742.325 603.17,759.325 603.5,776.5C 497.167,776.5 390.833,776.5 284.5,776.5C 284.827,766.319 284.494,756.319 283.5,746.5C 283.5,739.167 283.5,731.833 283.5,724.5 Z"/></g>
<g><path style="opacity:0.999" fill="#e1e0c4" d="M 711.5,703.5 C 711.833,703.5 712.167,703.5 712.5,703.5C 712.5,710.833 712.5,718.167 712.5,725.5C 676.5,725.5 640.5,725.5 604.5,725.5C 604.5,725.167 604.5,724.833 604.5,724.5C 640.167,724.5 675.833,724.5 711.5,724.5C 711.5,717.5 711.5,710.5 711.5,703.5 Z"/></g>
<g><path style="opacity:0.98" fill="#fdf7de" d="M 175.5,725.5 C 211.167,725.5 246.833,725.5 282.5,725.5C 282.175,732.687 282.509,739.687 283.5,746.5C 283.5,756.833 283.5,767.167 283.5,777.5C 390.5,777.5 497.5,777.5 604.5,777.5C 497.668,778.499 390.668,778.833 283.5,778.5C 247.833,778.5 212.167,778.5 176.5,778.5C 175.74,760.844 175.406,743.177 175.5,725.5 Z"/></g>
<g><path style="opacity:1" fill="#416330" d="M 604.5,725.5 C 604.5,742.833 604.5,760.167 604.5,777.5C 497.5,777.5 390.5,777.5 283.5,777.5C 283.5,767.167 283.5,756.833 283.5,746.5C 284.494,756.319 284.827,766.319 284.5,776.5C 390.833,776.5 497.167,776.5 603.5,776.5C 603.17,759.325 603.503,742.325 604.5,725.5 Z"/></g>
<g><path style="opacity:0.993" fill="#fff8df" d="M 604.5,725.5 C 640.5,725.5 676.5,725.5 712.5,725.5C 712.49,743.174 712.157,760.841 711.5,778.5C 676.165,778.333 640.832,778.5 605.5,779C 604.508,795.756 604.175,812.589 604.5,829.5C 497.5,829.5 390.5,829.5 283.5,829.5C 283.5,812.5 283.5,795.5 283.5,778.5C 390.668,778.833 497.668,778.499 604.5,777.5C 604.5,760.167 604.5,742.833 604.5,725.5 Z"/></g>
</svg>
